HIERARCHY
ROOT SpineBase
{
  OFFSET 0.000000 0.000000 0.000000
  CHANNELS 6 Xposition Yposition Zposition Zrotation Xrotation Yrotation
  JOINT SpineMid
  {
    OFFSET 0.000000 33.963264 0.000000
    CHANNELS 3 Zrotation Xrotation Yrotation
    JOINT SpineShoulder
    {
      OFFSET -0.257674 25.076354 -0.975071
      CHANNELS 3 Zrotation Xrotation Yrotation
      JOINT Neck
      {
        OFFSET -0.184796 8.267822 -0.722489
        CHANNELS 3 Zrotation Xrotation Yrotation
        JOINT Head
        {
          OFFSET 4.179688 10.666104 4.182832
          CHANNELS 3 Zrotation Xrotation Yrotation
          End Site
          {
            OFFSET 0 0 0
          }
        }
      }
      JOINT ShoulderLeft
      {
        OFFSET -4.564503 -5.332961 -7.647342
        CHANNELS 3 Zrotation Xrotation Yrotation
        JOINT ElbowLeft
        {
          OFFSET 14.978100 -18.198601 -10.380490
          CHANNELS 3 Zrotation Xrotation Yrotation
          JOINT WristLeft
          {
            OFFSET 5.328587 -24.326334 2.175045
            CHANNELS 3 Zrotation Xrotation Yrotation
            JOINT HandLeft
            {
              OFFSET 0.201625 -7.967941 2.602266
              CHANNELS 3 Zrotation Xrotation Yrotation
              JOINT HandTipLeft
              {
                OFFSET 2.724218 -7.650772 -1.196821
                CHANNELS 3 Zrotation Xrotation Yrotation
                End Site
                {
                  OFFSET 0 0 0
                }
              }
              JOINT ThumbLeft
              {
                OFFSET 2.519718 0.295298 -2.275920
                CHANNELS 3 Zrotation Xrotation Yrotation
                End Site
                {
                  OFFSET 0 0 0
                }
              }
            }
          }
        }
      }
      JOINT ShoulderRight
      {
        OFFSET 8.108616 -7.405429 -14.806236
        CHANNELS 3 Zrotation Xrotation Yrotation
        JOINT ElbowRight
        {
          OFFSET 4.196126 -27.713858 -0.739562
          CHANNELS 3 Zrotation Xrotation Yrotation
          JOINT WristRight
          {
            OFFSET 5.231087 -20.569756 2.372375
            CHANNELS 3 Zrotation Xrotation Yrotation
            JOINT HandRight
            {
              OFFSET -0.315888 -7.516707 0.777010
              CHANNELS 3 Zrotation Xrotation Yrotation
              JOINT HandTipRight
              {
                OFFSET 0.886549 -8.410533 0.084939
                CHANNELS 3 Zrotation Xrotation Yrotation
                End Site
                {
                  OFFSET 0 0 0
                }
              }
              JOINT ThumbRight
              {
                OFFSET -4.213841 0.699598 -2.977335
                CHANNELS 3 Zrotation Xrotation Yrotation
                End Site
                {
                  OFFSET 0 0 0
                }
              }
            }
          }
        }
      }
    }
  }
  JOINT HipLeft
  {
    OFFSET -6.403352 0.761704 -6.447653
    CHANNELS 3 Zrotation Xrotation Yrotation
    JOINT KneeLeft
    {
      OFFSET -0.114607 -38.789430 8.540010
      CHANNELS 3 Zrotation Xrotation Yrotation
      JOINT AnkleLeft
      {
        OFFSET -0.708016 -33.465490 0.887830
        CHANNELS 3 Zrotation Xrotation Yrotation
        JOINT FootLeft
        {
          OFFSET -6.559981 -2.691665 -14.158302
          CHANNELS 3 Zrotation Xrotation Yrotation
          End Site
          {
            OFFSET 0 0 0
          }
        }
      }
    }
  }
  JOINT HipRight
  {
    OFFSET 4.889770 1.428658 -0.953476
    CHANNELS 3 Zrotation Xrotation Yrotation
    JOINT KneeRight
    {
      OFFSET 2.546281 -34.498083 -12.191972
      CHANNELS 3 Zrotation Xrotation Yrotation
      JOINT AnkleRight
      {
        OFFSET 0.620856 -37.574199 -1.833983
        CHANNELS 3 Zrotation Xrotation Yrotation
        JOINT FootRight
        {
          OFFSET -5.844191 -3.048512 -12.634097
          CHANNELS 3 Zrotation Xrotation Yrotation
          End Site
          {
            OFFSET 0 0 0
          }
        }
      }
    }
  }
}
MOTION
Frames: 10
Frame Time: 0.033333
67.170986 73.196898 294.144145 -7.187620 15.426996 11.802030 -0.241416 0.879308 -10.952412 -0.170398 0.424693 -0.169189 21.066725 -2.067205 -7.249773 0.000000 0.000000 0.000000 -45.746661 -31.814304 -7.380516 37.916538 9.914166 -18.676176 -11.787930 7.404931 -4.123844 2.767924 -7.781291 8.775689 0.000000 0.000000 0.000000 0.000000 0.000000 0.000000 11.607058 -3.277308 3.982298 -18.753196 8.248554 0.702330 5.904650 -5.114315 -4.596364 -10.740389 14.002505 5.812913 0.000000 0.000000 0.000000 0.000000 0.000000 0.000000 6.714583 -21.680475 -8.636820 9.913286 -13.650674 1.184935 -9.300110 16.989719 -20.005839 0.000000 0.000000 0.000000 4.473504 -19.818710 -10.690117 -5.178821 11.848850 1.494983 7.931320 -6.866182 -18.917557 0.000000 0.000000 0.000000
67.350639 72.890351 295.962626 -7.872337 17.605515 10.757393 -0.274892 1.068390 -9.660066 -0.200218 0.567900 -0.167994 20.782695 -2.662146 -7.052054 0.000000 0.000000 0.000000 -45.152635 -31.998456 -5.725855 33.912118 11.378052 -18.944762 -2.944028 6.920288 -3.747762 -5.305178 -8.646778 8.276574 0.000000 0.000000 0.000000 0.000000 0.000000 0.000000 12.256635 -5.678963 4.438568 -20.470301 13.383951 2.593161 6.955459 -9.495006 -5.732986 -9.966074 13.771891 5.956262 0.000000 0.000000 0.000000 0.000000 0.000000 0.000000 7.660708 -22.746555 -7.001605 9.902128 -14.216636 1.335401 -8.656579 16.065389 -22.834374 0.000000 0.000000 0.000000 5.450077 -20.670552 -8.997806 -5.322322 11.976711 1.392817 8.846397 -8.773819 -21.308653 0.000000 0.000000 0.000000
67.557687 72.704587 297.796304 -8.534372 19.672780 9.809060 -0.296494 1.151995 -8.449560 -0.223514 0.700622 -0.164696 20.138309 -2.919097 -6.966405 0.000000 0.000000 0.000000 -44.962117 -32.235621 -4.390792 31.450215 13.884313 -18.996375 10.264117 7.280316 -1.223915 -13.487549 -13.830842 2.203349 0.000000 0.000000 0.000000 0.000000 0.000000 0.000000 12.582690 -7.737077 4.831381 -22.221468 16.739562 3.895919 6.193404 -8.580335 -7.106335 -8.273925 11.136472 6.282643 0.000000 0.000000 0.000000 0.000000 0.000000 0.000000 8.465030 -23.771580 -5.511052 10.227690 -14.412803 1.478675 -8.244675 14.807559 -25.651948 0.000000 0.000000 0.000000 6.313243 -21.420617 -7.376171 -5.251804 12.061933 1.238200 9.656166 -10.628288 -23.710270 0.000000 0.000000 0.000000
67.815926 72.535426 299.668656 -8.972973 21.278345 8.381922 -0.292308 1.135329 -6.808350 -0.225339 0.828226 -0.149489 18.561177 -0.845855 -7.834549 0.000000 0.000000 0.000000 -44.699694 -32.071372 -2.691429 29.033055 16.407875 -18.998460 20.199741 6.705030 1.148154 -24.499518 -14.443243 -1.308839 0.000000 0.000000 0.000000 0.000000 0.000000 0.000000 12.777564 -10.160159 5.001039 -24.252045 19.716603 5.282019 6.365299 -7.349612 -7.749011 -7.206052 8.020327 6.179341 0.000000 0.000000 0.000000 0.000000 0.000000 0.000000 8.773175 -24.130842 -3.955781 11.007939 -14.166087 1.666186 -8.009616 12.907779 -26.638764 0.000000 0.000000 0.000000 7.120022 -21.710073 -5.360424 -4.993500 12.255891 1.060651 9.995479 -12.640488 -24.385539 0.000000 0.000000 0.000000
68.045836 72.385084 301.349203 -9.303969 22.935482 8.011813 -0.259159 1.164465 -6.219080 -0.186423 0.764611 -0.135903 16.509113 0.503753 -8.323441 0.000000 0.000000 0.000000 -44.758098 -32.141148 -1.766409 27.698817 19.596946 -18.505791 30.145860 3.029875 4.575473 -33.005928 -11.489211 -3.631089 0.000000 0.000000 0.000000 0.000000 0.000000 0.000000 12.899807 -12.102348 5.182924 -25.982799 21.119921 5.978921 5.290686 -5.338860 -8.536246 -4.137555 7.297729 7.381860 0.000000 0.000000 0.000000 0.000000 0.000000 0.000000 8.872262 -24.845918 -3.352462 11.166815 -13.472651 1.681135 -7.521160 10.529689 -27.628896 0.000000 0.000000 0.000000 7.307646 -22.841910 -4.566039 -4.660179 13.314723 0.984049 10.308268 -14.973499 -25.000659 0.000000 0.000000 0.000000
68.327301 72.274310 302.782323 -9.512527 24.227237 8.700886 -0.206015 1.191285 -6.736192 -0.256159 0.943453 -0.128336 15.120572 1.779992 -8.869255 0.000000 0.000000 0.000000 -44.820570 -32.380695 -1.344457 27.259388 22.463809 -17.885996 38.794778 -1.454659 8.834624 -40.566250 -4.961421 -3.276498 0.000000 0.000000 0.000000 0.000000 0.000000 0.000000 12.927254 -13.764390 5.338537 -26.346026 20.329315 5.578767 4.522342 -4.315275 -8.546870 -8.153741 9.823907 7.910382 0.000000 0.000000 0.000000 0.000000 0.000000 0.000000 8.561033 -25.660233 -3.891684 11.076521 -12.626873 1.607488 -7.150741 8.313671 -27.493685 0.000000 0.000000 0.000000 6.779260 -24.317369 -5.088234 -4.209790 14.949579 0.955114 10.375607 -17.256832 -24.579455 0.000000 0.000000 0.000000
68.459524 72.093540 304.070873 -9.788785 25.126294 10.140082 -0.152349 1.185736 -8.028450 -0.241846 0.813545 -0.136998 14.491406 3.463512 -9.525847 0.000000 0.000000 0.000000 -44.304214 -32.313771 -0.634271 27.295251 24.629057 -17.281695 44.365018 -2.958551 12.420347 -45.611396 -5.361708 -6.547469 0.000000 0.000000 0.000000 0.000000 0.000000 0.000000 12.893078 -14.308400 5.439678 -25.684187 18.266315 4.501437 4.077907 -5.214920 -8.236692 -8.773438 9.032709 7.227777 0.000000 0.000000 0.000000 0.000000 0.000000 0.000000 8.577406 -26.020606 -4.916722 10.326701 -12.460016 1.508807 -6.720084 6.650616 -26.911002 0.000000 0.000000 0.000000 5.994941 -26.220676 -6.556170 -3.900878 17.156443 1.057537 10.340787 -19.284755 -23.762103 0.000000 0.000000 0.000000
68.491981 71.853371 305.095234 -9.956617 25.746154 12.534526 -0.086865 1.198092 -10.322706 -0.262365 1.000601 -0.120886 13.997836 3.447153 -9.563817 0.000000 0.000000 0.000000 -43.765384 -32.461564 -0.427088 28.180619 25.292465 -17.066258 43.893496 -2.311570 12.871473 -46.620593 -6.217026 -7.857750 0.000000 0.000000 0.000000 0.000000 0.000000 0.000000 13.672293 -15.321059 5.758850 -25.615880 15.833817 3.284115 4.565323 -8.935671 -7.525780 -6.784682 6.332615 5.565448 0.000000 0.000000 0.000000 0.000000 0.000000 0.000000 8.073857 -26.661387 -7.032948 9.551304 -11.712717 1.287840 -6.500148 4.914614 -25.342380 0.000000 0.000000 0.000000 4.891735 -27.075854 -9.075136 -3.812216 18.278201 1.096223 10.138023 -20.984218 -22.084584 0.000000 0.000000 0.000000
68.344583 71.470689 305.889235 -10.192019 26.099511 17.293270 0.021192 1.222429 -14.994925 -0.241100 0.941020 -0.124995 14.056873 3.889464 -9.736579 0.000000 0.000000 0.000000 -43.295308 -32.448688 -0.082718 28.348829 25.831622 -16.915925 44.229231 0.039845 13.312837 -47.311008 -7.028123 -9.334291 0.000000 0.000000 0.000000 0.000000 0.000000 0.000000 14.778911 -14.859362 6.259578 -25.393524 11.521985 1.108719 6.097671 -16.932377 -6.353802 -2.647363 4.547444 3.402271 0.000000 0.000000 0.000000 0.000000 0.000000 0.000000 6.907127 -27.401460 -11.491677 8.400118 -10.916893 0.971061 -6.369149 3.229048 -23.567048 0.000000 0.000000 0.000000 3.098079 -28.869386 -14.361275 -4.669074 20.117055 1.556197 9.982429 -22.334615 -20.258896 0.000000 0.000000 0.000000
68.233626 71.147253 306.631832 -10.279563 26.101949 20.002318 0.105208 1.139399 -17.679351 -0.240855 1.041252 -0.115361 13.885505 4.199351 -9.819212 0.000000 0.000000 0.000000 -43.416280 -32.645554 -0.481073 29.018369 26.043066 -16.749440 43.622759 0.433389 13.161915 -46.609399 -7.216181 -9.440699 0.000000 0.000000 0.000000 0.000000 0.000000 0.000000 16.314544 -17.089425 6.535164 -26.498503 12.537345 1.850388 8.515219 -27.205457 -5.508831 7.171036 -5.283318 -0.625375 0.000000 0.000000 0.000000 0.000000 0.000000 0.000000 6.374059 -27.529895 -13.991529 7.620285 -10.177389 0.730096 -6.346644 1.907933 -22.092201 0.000000 0.000000 0.000000 2.062535 -29.324552 -17.389364 -5.182854 20.955593 1.789011 9.820839 -23.177176 -18.782325 0.000000 0.000000 0.000000
